<svg xmlns="http://www.w3.org/2000/svg" id="mermaid-1554110400417" width="100%" height="100%" viewBox="-50 -10 1250 1941" style="max-width:1250px"><style>#mermaid-1554110400417 .actor{stroke:#ccf;fill:#ececff}#mermaid-1554110400417 text.actor{fill:#000;stroke:none}#mermaid-1554110400417 .actor-line{stroke:gray}#mermaid-1554110400417 .messageLine0,#mermaid-1554110400417 .messageLine1{stroke-width:1.5;stroke-dasharray:&apos;2 2&apos;;stroke:#333}#mermaid-1554110400417 #arrowhead{fill:#333}#mermaid-1554110400417 #crosshead path{fill:#333!important;stroke:#333!important}#mermaid-1554110400417 .messageText{fill:#333;stroke:none}#mermaid-1554110400417 .labelBox{stroke:#ccf;fill:#ececff}#mermaid-1554110400417 .labelText,#mermaid-1554110400417 .loopText{fill:#000;stroke:none}#mermaid-1554110400417 .loopLine{stroke-width:2;stroke-dasharray:&apos;2 2&apos;;stroke:#ccf}#mermaid-1554110400417 .note{stroke:#aa3;fill:#fff5ad}#mermaid-1554110400417 .noteText{fill:#000;stroke:none;font-family:&apos;trebuchet ms&apos;,verdana,arial;font-size:14px}</style><style>#mermaid-1554110400417{color:rgba(0,0,0,.65)}</style><g><line id="actor8004" x1="75" x2="75" y1="5" y2="1930" stroke="#999" stroke-width=".5" class="actor-line"/><rect width="150" height="65" x="0" y="0" fill="#eaeaea" stroke="#666" class="actor" rx="3" ry="3"/><text x="75" y="32.5" alignment-baseline="central" class="actor" dominant-baseline="central" style="text-anchor:middle;font-family:&quot;Open-Sans&quot;,&quot;sans-serif&quot;"><tspan x="75" dy="0">Blockchain Proxy</tspan></text></g><g><line id="actor8005" x1="275" x2="275" y1="5" y2="1930" stroke="#999" stroke-width=".5" class="actor-line"/><rect width="150" height="65" x="200" y="0" fill="#eaeaea" stroke="#666" class="actor" rx="3" ry="3"/><text x="275" y="32.5" alignment-baseline="central" class="actor" dominant-baseline="central" style="text-anchor:middle;font-family:&quot;Open-Sans&quot;,&quot;sans-serif&quot;"><tspan x="275" dy="0">Blockchain Log Processor</tspan></text></g><g><line id="actor8006" x1="475" x2="475" y1="5" y2="1930" stroke="#999" stroke-width=".5" class="actor-line"/><rect width="150" height="65" x="400" y="0" fill="#eaeaea" stroke="#666" class="actor" rx="3" ry="3"/><text x="475" y="32.5" alignment-baseline="central" class="actor" dominant-baseline="central" style="text-anchor:middle;font-family:&quot;Open-Sans&quot;,&quot;sans-serif&quot;"><tspan x="475" dy="0">Event Subscription</tspan></text></g><g><line id="actor8007" x1="675" x2="675" y1="5" y2="1930" stroke="#999" stroke-width=".5" class="actor-line"/><rect width="150" height="65" x="600" y="0" fill="#eaeaea" stroke="#666" class="actor" rx="3" ry="3"/><text x="675" y="32.5" alignment-baseline="central" class="actor" dominant-baseline="central" style="text-anchor:middle;font-family:&quot;Open-Sans&quot;,&quot;sans-serif&quot;"><tspan x="675" dy="0">Event Matcher</tspan></text></g><g><line id="actor8008" x1="875" x2="875" y1="5" y2="1930" stroke="#999" stroke-width=".5" class="actor-line"/><rect width="150" height="65" x="800" y="0" fill="#eaeaea" stroke="#666" class="actor" rx="3" ry="3"/><text x="875" y="32.5" alignment-baseline="central" class="actor" dominant-baseline="central" style="text-anchor:middle;font-family:&quot;Open-Sans&quot;,&quot;sans-serif&quot;"><tspan x="875" dy="0">Event Handler</tspan></text></g><g><line id="actor8009" x1="1075" x2="1075" y1="5" y2="1930" stroke="#999" stroke-width=".5" class="actor-line"/><rect width="150" height="65" x="1000" y="0" fill="#eaeaea" stroke="#666" class="actor" rx="3" ry="3"/><text x="1075" y="32.5" alignment-baseline="central" class="actor" dominant-baseline="central" style="text-anchor:middle;font-family:&quot;Open-Sans&quot;,&quot;sans-serif&quot;"><tspan x="1075" dy="0">Event Subscription</tspan></text></g><defs><marker id="arrowhead" markerHeight="4" markerWidth="6" orient="auto" refX="5" refY="2"><path d="M 0,0 V 4 L6,2 Z"/></marker></defs><defs><marker id="crosshead" markerHeight="8" markerWidth="15" orient="auto" refX="16" refY="4"><path fill="#000" stroke="#000" stroke-width="1" d="M 9,2 V 6 L16,4 Z" style="stroke-dasharray:0,0"/><path fill="none" stroke="#000" stroke-width="1" d="M 0,1 L 6,7 M 6,1 L 0,7" style="stroke-dasharray:0,0"/></marker></defs><g><rect width="150" height="36" x="0" y="75" fill="#EDF2AE" stroke="#666" class="note" rx="0" ry="0"/><text x="-4" y="99" fill="#000" class="noteText"><tspan x="16" fill="#000">(web3 abstraction)</tspan></text></g><g><rect width="150" height="36" x="200" y="121" fill="#EDF2AE" stroke="#666" class="note" rx="0" ry="0"/><text x="196" y="145" fill="#000" class="noteText"><tspan x="216" fill="#000">AKA Service For</tspan></text></g><g><rect width="150" height="36" x="200" y="167" fill="#EDF2AE" stroke="#666" class="note" rx="0" ry="0"/><text x="196" y="191" fill="#000" class="noteText"><tspan x="216" fill="#000">Logs in Block Range</tspan></text></g><g><text x="375" y="231" class="messageText" style="text-anchor:middle">Has many event subscriptions</text><line x1="275" x2="475" y1="238" y2="238" stroke="#000" stroke-width="2" class="messageLine0" style="fill:none"/></g><g><text x="575" y="266" class="messageText" style="text-anchor:middle">Each subscription has 1 matcher</text><line x1="475" x2="675" y1="273" y2="273" stroke="#000" stroke-width="2" class="messageLine0" style="fill:none"/></g><g><text x="675" y="301" class="messageText" style="text-anchor:middle">Each subscription has many handlers</text><line x1="475" x2="875" y1="308" y2="308" stroke="#000" stroke-width="2" class="messageLine0" style="fill:none"/></g><g><text x="175" y="336" class="messageText" style="text-anchor:middle">Get All Logs For Block Range</text><line x1="275" x2="75" y1="343" y2="343" stroke="#000" stroke-width="2" marker-end="url(#arrowhead)" class="messageLine0" style="fill:none"/></g><g><text x="175" y="371" class="messageText" style="text-anchor:middle">Return logssequenceDiagram</text><line x1="75" x2="275" y1="378" y2="378" stroke="#000" stroke-width="2" marker-end="url(#arrowhead)" class="messageLine1" style="stroke-dasharray:3,3;fill:none"/></g><g><rect width="150" height="36" x="0" y="388" fill="#EDF2AE" stroke="#666" class="note" rx="0" ry="0"/><text x="-4" y="412" fill="#000" class="noteText"><tspan x="16" fill="#000">(web3 abstraction)</tspan></text></g><g><rect width="150" height="36" x="200" y="434" fill="#EDF2AE" stroke="#666" class="note" rx="0" ry="0"/><text x="196" y="458" fill="#000" class="noteText"><tspan x="216" fill="#000">AKA Service For</tspan></text></g><g><rect width="150" height="36" x="200" y="480" fill="#EDF2AE" stroke="#666" class="note" rx="0" ry="0"/><text x="196" y="504" fill="#000" class="noteText"><tspan x="216" fill="#000">Logs in Block Range</tspan></text></g><g><text x="375" y="544" class="messageText" style="text-anchor:middle">Has many event subscriptions</text><line x1="275" x2="475" y1="551" y2="551" stroke="#000" stroke-width="2" class="messageLine0" style="fill:none"/></g><g><text x="575" y="579" class="messageText" style="text-anchor:middle">Each subscription has 1 matcher</text><line x1="475" x2="675" y1="586" y2="586" stroke="#000" stroke-width="2" class="messageLine0" style="fill:none"/></g><g><text x="675" y="614" class="messageText" style="text-anchor:middle">Each subscription has many handlers</text><line x1="475" x2="875" y1="621" y2="621" stroke="#000" stroke-width="2" class="messageLine0" style="fill:none"/></g><g><text x="175" y="649" class="messageText" style="text-anchor:middle">Get All Logs For Block Range</text><line x1="275" x2="75" y1="656" y2="656" stroke="#000" stroke-width="2" marker-end="url(#arrowhead)" class="messageLine0" style="fill:none"/></g><g><text x="175" y="684" class="messageText" style="text-anchor:middle">Return logs</text><line x1="75" x2="275" y1="691" y2="691" stroke="#000" stroke-width="2" marker-end="url(#arrowhead)" class="messageLine1" style="stroke-dasharray:3,3;fill:none"/></g><g><text x="375" y="769" class="messageText" style="text-anchor:middle">Is Log For Event</text><line x1="275" x2="475" y1="776" y2="776" stroke="#000" stroke-width="2" marker-end="url(#arrowhead)" class="messageLine0" style="fill:none"/></g><g><text x="575" y="804" class="messageText" style="text-anchor:middle">Is Match?</text><line x1="475" x2="675" y1="811" y2="811" stroke="#000" stroke-width="2" marker-end="url(#arrowhead)" class="messageLine0" style="fill:none"/></g><g><rect width="250" height="36" x="450" y="821" fill="#EDF2AE" stroke="#666" class="note" rx="0" ry="0"/><text x="446" y="845" fill="#000" class="noteText"><tspan x="466" fill="#000">address / event sig / event val</tspan></text></g><g><text x="575" y="885" class="messageText" style="text-anchor:middle">Return Match Result</text><line x1="675" x2="475" y1="892" y2="892" stroke="#000" stroke-width="2" marker-end="url(#arrowhead)" class="messageLine1" style="stroke-dasharray:3,3;fill:none"/></g><g><text x="375" y="920" class="messageText" style="text-anchor:middle">Return Matching Result</text><line x1="475" x2="275" y1="927" y2="927" stroke="#000" stroke-width="2" marker-end="url(#arrowhead)" class="messageLine1" style="stroke-dasharray:3,3;fill:none"/></g><g><text x="275" y="980" class="messageText" style="text-anchor:middle">Add to Batch</text><path stroke="#000" stroke-width="2" d="M 275,987 C 335,977 335,1017 275,1007" class="messageLine0" style="fill:none"/></g><g><line x1="165" x2="385" y1="937" y2="937" class="loopLine"/><line x1="385" x2="385" y1="937" y2="1027" class="loopLine"/><line x1="165" x2="385" y1="1027" y2="1027" class="loopLine"/><line x1="165" x2="165" y1="937" y2="1027" class="loopLine"/><polygon points="165 937 215 937 215 950 206.6 957 165 957" class="labelBox"/><text x="172.5" y="952" fill="#000" class="labelText"><tspan x="172.5" fill="#000">alt</tspan></text><text x="275" y="952" fill="#000" class="loopText" style="text-anchor:middle"><tspan x="275" fill="#000">[ Is Match ]</tspan></text></g><g><line x1="155" x2="710" y1="726" y2="726" class="loopLine"/><line x1="710" x2="710" y1="726" y2="1037" class="loopLine"/><line x1="155" x2="710" y1="1037" y2="1037" class="loopLine"/><line x1="155" x2="155" y1="726" y2="1037" class="loopLine"/><polygon points="155 726 205 726 205 739 196.6 746 155 746" class="labelBox"/><text x="162.5" y="741" fill="#000" class="labelText"><tspan x="162.5" fill="#000">loop</tspan></text><text x="432.5" y="741" fill="#000" class="loopText" style="text-anchor:middle"><tspan x="432.5" fill="#000">[ For Each Event Susbscription ]</tspan></text></g><g><line x1="145" x2="720" y1="701" y2="701" class="loopLine"/><line x1="720" x2="720" y1="701" y2="1047" class="loopLine"/><line x1="145" x2="720" y1="1047" y2="1047" class="loopLine"/><line x1="145" x2="145" y1="701" y2="1047" class="loopLine"/><polygon points="145 701 195 701 195 714 186.6 721 145 721" class="labelBox"/><text x="152.5" y="716" fill="#000" class="labelText"><tspan x="152.5" fill="#000">loop</tspan></text><text x="432.5" y="716" fill="#000" class="loopText" style="text-anchor:middle"><tspan x="432.5" fill="#000">[ For Each Log ]</tspan></text></g><g><text x="375" y="1100" class="messageText" style="text-anchor:middle">Process Batch</text><line x1="275" x2="475" y1="1107" y2="1107" stroke="#000" stroke-width="2" marker-end="url(#arrowhead)" class="messageLine0" style="fill:none"/></g><g><text x="975" y="1185" class="messageText" style="text-anchor:middle">Invoke handler chain</text><line x1="1075" x2="875" y1="1192" y2="1192" stroke="#000" stroke-width="2" marker-end="url(#arrowhead)" class="messageLine0" style="fill:none"/></g><g><rect width="450" height="36" x="450" y="1202" fill="#EDF2AE" stroke="#666" class="note" rx="0" ry="0"/><text x="446" y="1226" fill="#000" class="noteText"><tspan x="466" fill="#000">Aggregate / Query / Queue / Notify etc</tspan></text></g><g><line x1="440" x2="1085" y1="1142" y2="1142" class="loopLine"/><line x1="1085" x2="1085" y1="1142" y2="1248" class="loopLine"/><line x1="440" x2="1085" y1="1248" y2="1248" class="loopLine"/><line x1="440" x2="440" y1="1142" y2="1248" class="loopLine"/><polygon points="440 1142 490 1142 490 1155 481.6 1162 440 1162" class="labelBox"/><text x="447.5" y="1157" fill="#000" class="labelText"><tspan x="447.5" fill="#000">loop</tspan></text><text x="762.5" y="1157" fill="#000" class="loopText" style="text-anchor:middle"><tspan x="762.5" fill="#000">[ For Each Handler ]</tspan></text></g><g><line x1="430" x2="1095" y1="1117" y2="1117" class="loopLine"/><line x1="1095" x2="1095" y1="1117" y2="1258" class="loopLine"/><line x1="430" x2="1095" y1="1258" y2="1258" class="loopLine"/><line x1="430" x2="430" y1="1117" y2="1258" class="loopLine"/><polygon points="430 1117 480 1117 480 1130 471.6 1137 430 1137" class="labelBox"/><text x="437.5" y="1132" fill="#000" class="labelText"><tspan x="437.5" fill="#000">loop</tspan></text><text x="762.5" y="1132" fill="#000" class="loopText" style="text-anchor:middle"><tspan x="762.5" fill="#000">[ For Each Log ]</tspan></text></g><g><line x1="265" x2="1105" y1="1057" y2="1057" class="loopLine"/><line x1="1105" x2="1105" y1="1057" y2="1268" class="loopLine"/><line x1="265" x2="1105" y1="1268" y2="1268" class="loopLine"/><line x1="265" x2="265" y1="1057" y2="1268" class="loopLine"/><polygon points="265 1057 315 1057 315 1070 306.6 1077 265 1077" class="labelBox"/><text x="272.5" y="1072" fill="#000" class="labelText"><tspan x="272.5" fill="#000">loop</tspan></text><text x="685" y="1072" fill="#000" class="loopText" style="text-anchor:middle"><tspan x="685" fill="#000">[ over Each Event Subscription ]</tspan></text></g><g><text x="375" y="1346" class="messageText" style="text-anchor:middle">Is Log For Event</text><line x1="275" x2="475" y1="1353" y2="1353" stroke="#000" stroke-width="2" marker-end="url(#arrowhead)" class="messageLine0" style="fill:none"/></g><g><text x="575" y="1381" class="messageText" style="text-anchor:middle">Is Match?</text><line x1="475" x2="675" y1="1388" y2="1388" stroke="#000" stroke-width="2" marker-end="url(#arrowhead)" class="messageLine0" style="fill:none"/></g><g><rect width="250" height="36" x="450" y="1398" fill="#EDF2AE" stroke="#666" class="note" rx="0" ry="0"/><text x="446" y="1422" fill="#000" class="noteText"><tspan x="466" fill="#000">address / event sig / event val</tspan></text></g><g><text x="575" y="1462" class="messageText" style="text-anchor:middle">Return Match Result</text><line x1="675" x2="475" y1="1469" y2="1469" stroke="#000" stroke-width="2" marker-end="url(#arrowhead)" class="messageLine1" style="stroke-dasharray:3,3;fill:none"/></g><g><text x="375" y="1497" class="messageText" style="text-anchor:middle">Return Matching Result</text><line x1="475" x2="275" y1="1504" y2="1504" stroke="#000" stroke-width="2" marker-end="url(#arrowhead)" class="messageLine1" style="stroke-dasharray:3,3;fill:none"/></g><g><text x="275" y="1557" class="messageText" style="text-anchor:middle">Add to Batch</text><path stroke="#000" stroke-width="2" d="M 275,1564 C 335,1554 335,1594 275,1584" class="messageLine0" style="fill:none"/></g><g><line x1="165" x2="385" y1="1514" y2="1514" class="loopLine"/><line x1="385" x2="385" y1="1514" y2="1604" class="loopLine"/><line x1="165" x2="385" y1="1604" y2="1604" class="loopLine"/><line x1="165" x2="165" y1="1514" y2="1604" class="loopLine"/><polygon points="165 1514 215 1514 215 1527 206.6 1534 165 1534" class="labelBox"/><text x="172.5" y="1529" fill="#000" class="labelText"><tspan x="172.5" fill="#000">alt</tspan></text><text x="275" y="1529" fill="#000" class="loopText" style="text-anchor:middle"><tspan x="275" fill="#000">[ Is Match ]</tspan></text></g><g><line x1="155" x2="710" y1="1303" y2="1303" class="loopLine"/><line x1="710" x2="710" y1="1303" y2="1614" class="loopLine"/><line x1="155" x2="710" y1="1614" y2="1614" class="loopLine"/><line x1="155" x2="155" y1="1303" y2="1614" class="loopLine"/><polygon points="155 1303 205 1303 205 1316 196.6 1323 155 1323" class="labelBox"/><text x="162.5" y="1318" fill="#000" class="labelText"><tspan x="162.5" fill="#000">loop</tspan></text><text x="432.5" y="1318" fill="#000" class="loopText" style="text-anchor:middle"><tspan x="432.5" fill="#000">[ For Each Event Susbscription ]</tspan></text></g><g><line x1="145" x2="720" y1="1278" y2="1278" class="loopLine"/><line x1="720" x2="720" y1="1278" y2="1624" class="loopLine"/><line x1="145" x2="720" y1="1624" y2="1624" class="loopLine"/><line x1="145" x2="145" y1="1278" y2="1624" class="loopLine"/><polygon points="145 1278 195 1278 195 1291 186.6 1298 145 1298" class="labelBox"/><text x="152.5" y="1293" fill="#000" class="labelText"><tspan x="152.5" fill="#000">loop</tspan></text><text x="432.5" y="1293" fill="#000" class="loopText" style="text-anchor:middle"><tspan x="432.5" fill="#000">[ For Each Log ]</tspan></text></g><g><text x="375" y="1677" class="messageText" style="text-anchor:middle">Process Batch</text><line x1="275" x2="475" y1="1684" y2="1684" stroke="#000" stroke-width="2" marker-end="url(#arrowhead)" class="messageLine0" style="fill:none"/></g><g><text x="672.5" y="1762" class="messageText" style="text-anchor:middle">Invoke handler chain</text><line x1="475" x2="870" y1="1769" y2="1769" stroke="#000" stroke-width="2" marker-end="url(#arrowhead)" class="messageLine0" style="fill:none"/></g><g><rect width="450" height="36" x="450" y="1779" fill="#EDF2AE" stroke="#666" class="note" rx="0" ry="0"/><text x="446" y="1803" fill="#000" class="noteText"><tspan x="466" fill="#000">Aggregate / Query / Queue / Notify etc</tspan></text></g><g><line x1="440" x2="910" y1="1719" y2="1719" class="loopLine"/><line x1="910" x2="910" y1="1719" y2="1825" class="loopLine"/><line x1="440" x2="910" y1="1825" y2="1825" class="loopLine"/><line x1="440" x2="440" y1="1719" y2="1825" class="loopLine"/><polygon points="440 1719 490 1719 490 1732 481.6 1739 440 1739" class="labelBox"/><text x="447.5" y="1734" fill="#000" class="labelText"><tspan x="447.5" fill="#000">loop</tspan></text><text x="675" y="1734" fill="#000" class="loopText" style="text-anchor:middle"><tspan x="675" fill="#000">[ For Each Handler ]</tspan></text></g><g><line x1="430" x2="920" y1="1694" y2="1694" class="loopLine"/><line x1="920" x2="920" y1="1694" y2="1835" class="loopLine"/><line x1="430" x2="920" y1="1835" y2="1835" class="loopLine"/><line x1="430" x2="430" y1="1694" y2="1835" class="loopLine"/><polygon points="430 1694 480 1694 480 1707 471.6 1714 430 1714" class="labelBox"/><text x="437.5" y="1709" fill="#000" class="labelText"><tspan x="437.5" fill="#000">loop</tspan></text><text x="675" y="1709" fill="#000" class="loopText" style="text-anchor:middle"><tspan x="675" fill="#000">[ For Each Log ]</tspan></text></g><g><line x1="265" x2="930" y1="1634" y2="1634" class="loopLine"/><line x1="930" x2="930" y1="1634" y2="1845" class="loopLine"/><line x1="265" x2="930" y1="1845" y2="1845" class="loopLine"/><line x1="265" x2="265" y1="1634" y2="1845" class="loopLine"/><polygon points="265 1634 315 1634 315 1647 306.6 1654 265 1654" class="labelBox"/><text x="272.5" y="1649" fill="#000" class="labelText"><tspan x="272.5" fill="#000">loop</tspan></text><text x="597.5" y="1649" fill="#000" class="loopText" style="text-anchor:middle"><tspan x="597.5" fill="#000">[ over Each Event Subscription ]</tspan></text></g><g><rect width="150" height="65" x="0" y="1865" fill="#eaeaea" stroke="#666" class="actor" rx="3" ry="3"/><text x="75" y="1897.5" alignment-baseline="central" class="actor" dominant-baseline="central" style="text-anchor:middle;font-family:&quot;Open-Sans&quot;,&quot;sans-serif&quot;"><tspan x="75" dy="0">Blockchain Proxy</tspan></text></g><g><rect width="150" height="65" x="200" y="1865" fill="#eaeaea" stroke="#666" class="actor" rx="3" ry="3"/><text x="275" y="1897.5" alignment-baseline="central" class="actor" dominant-baseline="central" style="text-anchor:middle;font-family:&quot;Open-Sans&quot;,&quot;sans-serif&quot;"><tspan x="275" dy="0">Blockchain Log Processor</tspan></text></g><g><rect width="150" height="65" x="400" y="1865" fill="#eaeaea" stroke="#666" class="actor" rx="3" ry="3"/><text x="475" y="1897.5" alignment-baseline="central" class="actor" dominant-baseline="central" style="text-anchor:middle;font-family:&quot;Open-Sans&quot;,&quot;sans-serif&quot;"><tspan x="475" dy="0">Event Subscription</tspan></text></g><g><rect width="150" height="65" x="600" y="1865" fill="#eaeaea" stroke="#666" class="actor" rx="3" ry="3"/><text x="675" y="1897.5" alignment-baseline="central" class="actor" dominant-baseline="central" style="text-anchor:middle;font-family:&quot;Open-Sans&quot;,&quot;sans-serif&quot;"><tspan x="675" dy="0">Event Matcher</tspan></text></g><g><rect width="150" height="65" x="800" y="1865" fill="#eaeaea" stroke="#666" class="actor" rx="3" ry="3"/><text x="875" y="1897.5" alignment-baseline="central" class="actor" dominant-baseline="central" style="text-anchor:middle;font-family:&quot;Open-Sans&quot;,&quot;sans-serif&quot;"><tspan x="875" dy="0">Event Handler</tspan></text></g><g><rect width="150" height="65" x="1000" y="1865" fill="#eaeaea" stroke="#666" class="actor" rx="3" ry="3"/><text x="1075" y="1897.5" alignment-baseline="central" class="actor" dominant-baseline="central" style="text-anchor:middle;font-family:&quot;Open-Sans&quot;,&quot;sans-serif&quot;"><tspan x="1075" dy="0">Event Subscription</tspan></text></g></svg>